# xmcd
#
# Track frame offsets:
#	150
#	38665
#	60998
#	81218
#	103518
#	120182
#	146361
#	162957
#	182160
#	216184
#	235123
#	255989
#
# Disc length: 3734 seconds
#
# Revision: 1
# Processed by: cddbd v1.5.2PL0 Copyright (c) Steve Scherf et al.
# Submitted via: audiograbber 1.83.01
#
DISCID=8f0e940c
DTITLE=Snowy White and The White Flames - Keep Out - We Are Toxic
DYEAR=2006
DGENRE=Blues
TTITLE0=Keep Out - We Are Toxic
TTITLE1=What Would I Do
TTITLE2=Flamingo Lake
TTITLE3=Silence In The Valley
TTITLE4=Naharia
TTITLE5=A Piece Of The Action
TTITLE6=Time Waits For No Man
TTITLE7=Precious
TTITLE8=When The Rains Don't Come
TTITLE9=Keep It Going
TTITLE10=Old Number 7
TTITLE11=Bongo Fury
EXTD=
EXTT0=
EXTT1=
EXTT2=
EXTT3=
EXTT4=
EXTT5=
EXTT6=
EXTT7=
EXTT8=
EXTT9=
EXTT10=
EXTT11=
PLAYORDER=
